<svg width="130" height="18" viewBox="0 0 130 18" fill="none" xmlns="http://www.w3.org/2000/svg">
<path d="M6.59961 17.7465V11.4085L0 0.633802H4.2442L8.51061 7.77465H8.5995L12.8881 0.633802H16.9768L10.3772 11.3662V17.7465H6.59961Z" fill="black"/>
<path d="M18.7656 17.7465V0H22.4542V17.7465H18.7656Z" fill="black"/>
<path d="M29.7542 17.9789C28.1839 17.9789 26.9543 17.6197 26.0655 16.9014C25.1766 16.169 24.7322 15.2113 24.7322 14.0282C24.7322 12.7746 25.1915 11.8099 26.1099 11.1338C27.0284 10.4577 28.3468 10.1197 30.0652 10.1197H33.8872V9.6338C33.8872 8.26761 33.028 7.58451 31.3096 7.58451C29.8134 7.58451 28.9098 8.07746 28.5987 9.06338H24.9322C25.2285 7.66901 25.9173 6.61268 26.9988 5.89437C28.0802 5.17606 29.5171 4.8169 31.3096 4.8169C33.2947 4.8169 34.8057 5.23944 35.8427 6.08451C36.8945 6.92958 37.4204 8.16197 37.4204 9.78169V14.2817H39.1536V17.7465H35.4205V15.6761H34.4872C34.028 16.4085 33.4132 16.9789 32.6429 17.3873C31.8725 17.7817 30.9096 17.9789 29.7542 17.9789ZM30.3097 15.3169C31.0059 15.3169 31.6207 15.1972 32.154 14.9577C32.6873 14.7183 33.1095 14.4014 33.4206 14.007C33.7317 13.5986 33.8872 13.1408 33.8872 12.6338V12.4437H30.243C28.9098 12.4437 28.2431 12.9155 28.2431 13.8592C28.2431 14.3239 28.4283 14.6831 28.7987 14.9366C29.169 15.1901 29.6727 15.3169 30.3097 15.3169Z" fill="black"/>
<path d="M41.7364 17.7465V8.53521H39.9143V5.07042H43.6474V7.14084H44.5807C45.0992 6.40845 45.751 5.84507 46.5362 5.4507C47.3213 5.04225 48.299 4.83803 49.4693 4.83803C51.3211 4.83803 52.7506 5.32394 53.758 6.29577C54.7801 7.25352 55.2912 8.54225 55.2912 10.162V17.7465H51.6025V10.8169C51.6025 9.88732 51.3359 9.1831 50.8026 8.70423C50.2841 8.21127 49.5212 7.96479 48.5138 7.96479C47.5065 7.96479 46.7361 8.21127 46.2028 8.70423C45.6844 9.1831 45.4251 9.88732 45.4251 10.8169V17.7465H41.7364Z" fill="black"/>
<path d="M62.4345 17.9789C60.8642 17.9789 59.6347 17.6197 58.7459 16.9014C57.857 16.169 57.4126 15.2113 57.4126 14.0282C57.4126 12.7746 57.8718 11.8099 58.7903 11.1338C59.7088 10.4577 61.0272 10.1197 62.7456 10.1197H66.5676V9.6338C66.5676 8.26761 65.7084 7.58451 63.99 7.58451C62.4938 7.58451 61.5901 8.07746 61.279 9.06338H57.6126C57.9089 7.66901 58.5977 6.61268 59.6791 5.89437C60.7606 5.17606 62.1975 4.8169 63.99 4.8169C65.9751 4.8169 67.4861 5.23944 68.5231 6.08451C69.5749 6.92958 70.1007 8.16197 70.1007 9.78169V14.2817H71.834V17.7465H68.1009V15.6761H67.1676C66.7084 16.4085 66.0936 16.9789 65.3232 17.3873C64.5529 17.7817 63.59 17.9789 62.4345 17.9789ZM62.99 15.3169C63.6863 15.3169 64.3011 15.1972 64.8344 14.9577C65.3677 14.7183 65.7899 14.4014 66.101 14.007C66.4121 13.5986 66.5676 13.1408 66.5676 12.6338V12.4437H62.9234C61.5901 12.4437 60.9235 12.9155 60.9235 13.8592C60.9235 14.3239 61.1087 14.6831 61.479 14.9366C61.8494 15.1901 62.353 15.3169 62.99 15.3169Z" fill="black"/>
<path d="M80.6279 17.7465V0.633802H84.3832V14.6197H93.6494V17.7465H80.6279Z" fill="black"/>
<path d="M101.534 18C100.097 18 98.8452 17.7324 97.7786 17.1972C96.712 16.6479 95.8898 15.8803 95.3121 14.8944C94.7344 13.8944 94.4455 12.7183 94.4455 11.3662C94.4455 10.0141 94.727 8.85211 95.2899 7.88028C95.8528 6.89437 96.6528 6.14084 97.6897 5.61972C98.7415 5.08451 99.9785 4.8169 101.401 4.8169C102.793 4.8169 103.986 5.07042 104.978 5.57746C105.986 6.08451 106.756 6.80986 107.289 7.75352C107.822 8.69718 108.089 9.82394 108.089 11.1338V12.3169H97.9786C98.1268 13.2606 98.5045 13.9789 99.1119 14.4718C99.7193 14.9648 100.519 15.2113 101.512 15.2113C102.297 15.2113 102.919 15.0845 103.378 14.831C103.838 14.5775 104.163 14.1901 104.356 13.669H108.045C107.748 15.0211 107.03 16.0845 105.889 16.8592C104.749 17.6197 103.297 18 101.534 18ZM98.0675 9.99296H104.556C104.437 9.19014 104.112 8.59155 103.578 8.19718C103.045 7.78873 102.327 7.58451 101.423 7.58451C100.519 7.58451 99.7785 7.78873 99.2008 8.19718C98.6378 8.60563 98.2601 9.20423 98.0675 9.99296Z" fill="black"/>
<path d="M114.593 17.9789C113.023 17.9789 111.793 17.6197 110.904 16.9014C110.015 16.169 109.571 15.2113 109.571 14.0282C109.571 12.7746 110.03 11.8099 110.949 11.1338C111.867 10.4577 113.186 10.1197 114.904 10.1197H118.726V9.6338C118.726 8.26761 117.867 7.58451 116.148 7.58451C114.652 7.58451 113.749 8.07746 113.437 9.06338H109.771C110.067 7.66901 110.756 6.61268 111.838 5.89437C112.919 5.17606 114.356 4.8169 116.148 4.8169C118.133 4.8169 119.644 5.23944 120.681 6.08451C121.733 6.92958 122.259 8.16197 122.259 9.78169V14.2817H123.992V17.7465H120.259V15.6761H119.326C118.867 16.4085 118.252 16.9789 117.482 17.3873C116.711 17.7817 115.748 17.9789 114.593 17.9789ZM115.148 15.3169C115.845 15.3169 116.459 15.1972 116.993 14.9577C117.526 14.7183 117.948 14.4014 118.259 14.007C118.57 13.5986 118.726 13.1408 118.726 12.6338V12.4437H115.082C113.749 12.4437 113.082 12.9155 113.082 13.8592C113.082 14.3239 113.267 14.6831 113.637 14.9366C114.008 15.1901 114.511 15.3169 115.148 15.3169Z" fill="black"/>
<path d="M126.311 17.7465V0H130V17.7465H126.311Z" fill="black"/>
</svg>
